<svg width="200" height="200" viewBox="0 0 200 200" fill="none" xmlns="http://www.w3.org/2000/svg">
<circle cx="100" cy="100" r="97.5" fill="white" stroke="#6DA544" stroke-width="5"/>
<circle cx="100" cy="100" r="90" stroke="#6DA544" stroke-width="11"/>
<circle cx="100" cy="100" r="76" fill="#D80027" stroke="#D80027" stroke-width="2"/>
<path d="M126.311 132.58C126.455 130.302 125.859 128.058 126.025 125.785C126.175 123.756 127.293 121.871 129.863 122.04C131.142 122.125 132.648 123.516 132.92 124.839C133.25 126.424 133.269 128.032 133.168 129.627C133.062 131.289 133.269 134.302 133.042 136.131C134.303 136.083 135.56 136.024 136.808 135.961C136.466 135.142 136.415 133.081 136.452 132.504C136.569 130.424 136.076 128.386 136.212 126.312C136.333 124.47 137.26 122.744 139.387 122.899C140.443 122.976 141.689 124.245 141.913 125.446C142.179 126.894 142.199 128.36 142.115 129.81C142.025 131.303 142.161 133.977 142.015 135.656C143.032 135.591 144.03 135.52 145.011 135.45C144.896 134.509 144.877 133.219 144.896 132.785C144.981 130.753 144.623 128.76 144.724 126.741C144.813 124.938 145.483 123.259 147.023 123.411C147.789 123.487 148.692 124.726 148.856 125.901C149.048 127.309 149.067 128.737 149.005 130.159C148.947 131.417 149.032 133.539 148.974 135.149C149.77 135.085 150.553 135.017 151.309 134.954C151.137 134.201 151.11 132.555 151.131 132.085C151.198 130.31 150.919 128.564 150.996 126.801C151.064 125.222 151.588 123.758 152.787 123.881C153.388 123.948 154.088 125.029 154.214 126.06C154.363 127.29 154.377 128.539 154.329 129.78C154.281 131.029 154.353 133.256 154.276 134.689C154.856 134.638 155.409 134.587 155.947 134.531C155.85 133.79 155.837 132.382 155.848 131.964C155.89 130.313 155.71 128.685 155.757 127.035C155.803 125.564 156.148 124.194 156.926 124.318C157.319 124.375 157.778 125.389 157.86 126.347C157.957 127.501 157.965 128.664 157.936 129.819C157.905 130.976 157.95 133.005 157.9 134.344C158.451 134.29 158.967 134.238 159.457 134.186C159.398 133.476 159.389 132.337 159.397 131.979C159.428 130.453 159.294 128.952 159.328 127.428C159.362 126.074 159.621 124.811 160.209 124.92C160.498 124.98 160.846 125.913 160.904 126.794C160.98 127.858 160.986 128.934 160.962 130C160.937 131.027 160.977 132.796 160.938 134.029C161.436 133.977 161.878 133.932 162.277 133.886C162.238 133.217 162.23 132.266 162.238 131.951C162.266 130.515 162.145 129.107 162.178 127.677C162.213 126.399 162.437 125.212 162.949 125.322C163.206 125.372 163.509 126.252 163.56 127.082C163.622 128.081 163.632 129.09 163.608 130.091C163.587 131.021 163.609 132.589 163.587 133.74C164.183 133.671 164.508 133.635 164.508 133.635L163.703 97.6347C151.725 83.5574 113.906 84.6486 102 85.3666C102 85.3666 103.096 93.695 103.776 96.4045C104.248 98.2941 106.308 103.761 106.308 103.761L112.622 104.278C114.357 104.42 115.753 105.822 115.942 107.613L117.242 119.876L124.495 134.635C124.761 135.17 124.875 135.756 124.875 136.34C125.496 136.334 126.117 136.327 126.742 136.315C126.337 135.379 126.273 133.211 126.311 132.58ZM161.845 109.018C162.099 109.064 162.399 109.838 162.455 110.573C162.519 111.455 162.525 112.347 162.504 113.233C162.479 114.219 162.519 116.31 162.47 117.295C162.46 117.441 161.297 117.201 161.297 117.201C161.145 117.198 161.124 115.311 161.134 114.874C161.164 113.608 161.043 112.362 161.079 111.099C161.11 109.971 161.336 108.924 161.845 109.018ZM159.103 107.893C159.394 107.947 159.739 108.835 159.802 109.677C159.876 110.689 159.881 111.717 159.859 112.738C159.831 113.866 159.89 116.255 159.821 117.39L158.48 117.302C158.308 117.295 158.284 115.129 158.293 114.626C158.326 113.171 158.193 111.737 158.229 110.284C158.262 108.988 158.516 107.783 159.103 107.893ZM155.829 106.933C156.215 106.988 156.675 107.927 156.758 108.807C156.856 109.872 156.865 110.949 156.837 112.017C156.799 113.202 156.867 115.683 156.784 116.871C156.769 117.04 154.99 116.798 154.99 116.798C154.762 116.796 154.734 114.522 154.745 113.993C154.789 112.467 154.608 110.963 154.658 109.442C154.702 108.086 155.043 106.822 155.829 106.933ZM149.893 108.667C149.96 107.167 150.484 105.778 151.687 105.901C152.281 105.965 152.985 106.992 153.11 107.966C153.262 109.142 153.271 110.325 153.222 111.502C153.171 112.814 153.38 115.273 153.143 116.567C153.031 117.178 150.405 116.779 150.405 116.779C150.046 116.771 150 114.27 150.022 113.684C150.094 111.998 149.818 110.343 149.893 108.667ZM143.621 107.831C143.712 106.251 144.379 104.781 145.921 104.914C146.685 104.977 147.588 106.064 147.752 107.087C147.945 108.325 147.966 109.577 147.898 110.816C147.828 112.198 147.867 115.075 147.68 116.453L144.284 116.379C143.825 116.376 143.765 113.736 143.797 113.12C143.879 111.347 143.522 109.601 143.621 107.831ZM136.345 107.271C136.436 105.694 137.108 104.222 138.647 104.356C139.413 104.419 140.312 105.507 140.479 106.528C140.672 107.768 140.687 109.018 140.625 110.259C140.558 111.643 140.59 114.519 140.406 115.898L137.006 115.822C136.549 115.819 136.496 113.181 136.525 112.563C136.608 110.788 136.246 109.044 136.345 107.271ZM129.151 106.226C129.244 104.422 129.913 102.748 131.453 102.898C132.221 102.971 133.121 104.215 133.283 105.386C133.478 106.794 133.496 108.224 133.434 109.645C133.359 111.222 133.54 113.894 133.357 115.473H129.638C129.178 115.469 129.296 112.98 129.329 112.275C129.411 110.244 129.051 108.25 129.151 106.226ZM125.863 109.301C125.769 110.912 125.968 113.673 125.753 115.297C125.713 115.609 120.819 115.418 120.819 115.418C120.186 115.415 120.163 112.716 120.201 111.991C120.32 109.914 119.824 107.873 119.962 105.802C120.084 103.955 121.012 102.234 123.136 102.387C124.195 102.467 125.438 103.735 125.66 104.934C125.929 106.381 125.95 107.846 125.863 109.301Z" fill="white"/>
<path d="M36.4824 127.166C36.5673 125.647 37.8814 124.44 38.5286 125.253C39.091 125.956 39.3774 127.517 39.2805 128.87C39.191 130.117 39.2592 134.125 39.0849 135.203C39.7579 135.23 40.4203 135.25 41.0872 135.276C40.8917 132.96 40.8553 129.049 40.9917 126.914C41.0963 125.284 42.7439 123.994 43.5578 124.865C44.2596 125.614 44.6219 127.289 44.5006 128.734C44.393 130.006 44.4688 134.029 44.2854 135.382C44.9463 135.406 45.598 135.426 46.2513 135.449C45.9755 133.026 45.9163 128.692 46.0998 126.353C46.2377 124.631 48.3961 123.264 49.4586 124.184C50.3802 124.982 50.8546 126.757 50.694 128.29C50.5439 129.728 50.6636 134.454 50.3635 135.572C51.4882 135.606 52.6083 135.641 53.7148 135.671C53.395 134.211 53.5284 129.405 53.351 127.902C53.157 126.23 53.736 124.292 54.8607 123.429C56.1642 122.425 58.8062 123.917 58.9699 125.795C59.2003 128.368 59.1245 133.189 58.7743 135.809C60.3886 135.85 61.9801 135.889 63.5459 135.923C63.2138 134.257 63.3487 129.045 63.1593 127.409C62.9471 125.567 63.5792 123.429 64.8023 122.478C66.2226 121.372 69.0982 123.015 69.283 125.087C69.5284 127.899 69.4512 133.143 69.0784 136.042C70.8684 136.078 72.6236 136.112 74.3378 136.139C73.8467 134.695 74.0425 128.738 73.7968 126.92C73.533 124.976 74.3152 122.718 75.8293 121.709C77.5863 120.541 81.1422 122.273 81.3678 124.462C81.6818 127.487 81.5756 133.176 81.0951 136.204C81.0937 136.216 81.0707 136.229 81.0618 136.238C83.2824 136.269 85.418 136.293 87.4809 136.312C87.3506 133.373 87.0231 126.285 87.34 123.392C87.4976 122.173 88.351 121.216 90.0061 121.012C92.0934 120.753 95.1203 122.358 94.8975 125.071C94.8278 125.943 94.8869 126.828 94.8869 127.706C94.8884 128.572 94.8884 129.433 94.8884 130.514C94.8215 131.966 94.8094 135.133 94.5095 136.362C96.8632 136.376 99.0884 136.385 101.173 136.385C100.524 135.194 100.778 128.518 100.483 126.532C100.181 124.481 101.076 122.111 102.812 121.043C104.822 119.816 108.894 121.641 109.15 123.947C109.503 127.127 109.385 133.123 108.836 136.309C108.833 136.331 108.803 136.352 108.773 136.373C117.626 136.331 122.517 136.216 122.517 136.216L114.85 121.51L113.597 110.373C113.597 110.373 113.498 109.853 113.233 109.334C113.064 108.998 112.257 109.029 112.257 109.029L104.675 108.443C104.675 108.443 101.844 101.36 101.192 98.9096C100.422 96.0122 99.1779 87.1029 99.1779 87.1029C99.1779 87.1029 99.043 86.2144 98.7913 86.0102C98.5654 85.8236 97.7835 85.8619 97.7835 85.8619L92.2599 85.9552L91.0202 85.9775L90.7383 85.2429C90.7383 85.2429 87.669 78.238 87.1155 75.7667C86.5578 73.2807 86.3457 65.6104 86.3457 65.6104C86.3457 65.6104 86.323 65.0567 86.1623 64.9058C86.0546 64.8052 85.6772 64.7132 85.6772 64.7132L83.8068 64.632C83.8068 64.632 83.4095 64.509 83.2852 64.4304C83.1248 64.3268 82.8624 63.936 82.8624 63.936L74.3243 47.6291C74.3243 47.6291 73.9621 47.213 73.733 47.1182C73.4104 46.9835 73.2012 46.9628 72.869 47.062C39.3759 57.0433 37.3418 73.8624 37.3418 73.8624L35 134.996C36.0398 135.036 35.5457 135.074 36.5733 135.111C36.4066 132.97 36.3717 129.205 36.4824 127.166ZM87.096 100.075C87.3779 98.9336 89.0542 97.6943 90.5046 97.5877C93.415 97.3728 94.729 98.9676 94.9369 100.707C95.1717 102.659 94.5396 104.603 94.7503 106.564C94.8246 107.245 94.7701 110.053 93.9199 110.187C92.9876 110.333 87.2519 110.096 87.2519 110.096C86.867 108.579 87.0837 105.718 86.9155 104.197C86.7625 102.834 86.761 101.451 87.096 100.075ZM75.2245 79.6696C75.3611 78.0704 76.416 76.5826 78.8367 76.7128C80.0402 76.7795 81.4588 77.8795 81.712 78.9233C82.0182 80.1746 82.0423 81.442 81.9439 82.7006C81.8348 84.0969 82.0728 86.7105 81.7863 88.1111C81.7863 88.1111 76.4221 89.0426 75.7975 88.6295C75.2139 88.243 75.0701 81.4643 75.2245 79.6696ZM75.8279 99.0089C77.5846 98.0837 81.1405 99.4607 81.3664 101.193C81.6801 103.584 81.5742 108.087 81.0937 110.484C81.0193 110.849 75.199 111.534 74.4745 110.949C73.8088 110.409 74.062 104.688 73.7953 103.133C73.5315 101.594 74.3137 99.8072 75.8279 99.0089ZM69.0511 111.697C68.9888 112.054 64.2084 112.719 63.6079 112.15C63.0594 111.626 63.2701 106.075 63.0533 104.562C62.8335 103.069 63.4776 101.337 64.7222 100.565C66.1666 99.6679 69.089 100.999 69.2784 102.681C69.5345 105 69.4481 109.371 69.0511 111.697ZM70.1743 50.7918C71.1761 50.5298 72.3311 51.125 72.2826 51.6788C72.1445 53.1876 70.7033 53.3667 69.0904 53.4038C68.6418 53.2483 67.1684 54.4225 67.2186 52.9625C67.264 51.6654 68.8631 51.1354 70.1743 50.7918ZM67.8248 79.4507C68.8177 79.5127 69.9817 80.5818 70.1909 81.5916C70.447 82.8089 70.4636 84.0379 70.385 85.2593C70.294 86.6155 70.4895 88.8827 70.2515 90.2389C70.2515 90.2389 65.8362 91.4176 65.3253 91.0149C64.8387 90.6401 64.7222 84.0599 64.8479 82.3172C64.9662 80.7683 65.8331 79.3204 67.8248 79.4507ZM63.5278 53.4438C64.1461 53.4008 65.3164 53.3342 65.2541 54.3129C65.1996 55.3005 64.093 55.3109 63.1837 55.4353C62.7485 55.4205 61.9695 55.8587 61.9164 54.9052C61.8604 53.8731 62.7577 53.4926 63.5278 53.4438ZM57.9968 56.0142C58.8047 55.8484 59.7838 55.7817 59.8748 56.6776C59.99 57.8325 58.7895 58.2545 57.8892 58.4707C57.3268 58.6084 56.1112 58.5729 56.1627 57.6622C56.2143 56.8242 56.9085 56.0231 57.9968 56.0142ZM56.2006 84.8418C56.2961 83.3996 57.0161 82.055 58.6758 82.1749C59.4973 82.2342 60.4674 83.2277 60.6373 84.1652C60.848 85.2962 60.8629 86.4423 60.7963 87.5767C60.7237 88.838 60.8842 90.9259 60.6901 92.1876C60.6901 92.1876 57.0206 93.3023 56.5947 92.9308C56.1931 92.58 56.0945 86.4603 56.2006 84.8418ZM56.6993 102.224C58.1014 102.224 59.0972 102.889 59.2518 104.424C59.464 106.547 59.3943 110.538 59.0654 112.664C59.0093 112.99 55.0244 113.597 54.5303 113.075C54.0695 112.599 54.2453 107.526 54.0619 106.141C53.88 104.778 54.8334 102.224 56.6993 102.224ZM52.5704 59.1192C53.3692 59.0541 54.3696 58.9356 54.3954 59.8685C54.4211 60.9212 53.592 61.6408 52.4658 61.6868C51.5761 61.8378 50.6121 61.7667 50.6758 60.825C50.7318 59.9499 51.4518 59.2155 52.5704 59.1192ZM50.8167 85.2816C51.4715 85.3332 52.24 86.2187 52.381 87.051C52.5477 88.0548 52.5629 89.0736 52.5068 90.082C52.4492 91.2028 52.5734 93.0271 52.4204 94.1465C52.4204 94.1465 49.5056 95.4405 49.1676 95.106C48.8478 94.7978 48.7674 89.0886 48.8538 87.6493C48.9296 86.367 49.5041 85.1733 50.8167 85.2816ZM47.7307 62.6847C48.4006 62.658 49.2585 62.7573 49.542 63.6931C49.4131 64.5756 48.7341 64.7665 47.958 64.8925C47.2259 65.0107 46.6894 65.0347 46.5378 64.0779C46.3862 63.0784 47.0289 62.7053 47.7307 62.6847ZM47.7231 103.998C48.7872 103.193 50.9471 104.391 51.0835 105.899C51.2715 107.989 51.2093 111.918 50.9152 114.007C50.8713 114.333 47.3426 114.661 46.9001 114.155C46.4923 113.684 46.65 108.959 46.4893 107.596C46.3286 106.248 46.803 104.693 47.7231 103.998ZM45.9876 89.5576C46.1346 90.5278 46.1452 91.5093 46.1013 92.4851C46.0467 93.5675 46.1619 95.5917 46.0209 96.6712C46.0209 96.6712 43.4548 97.9372 43.1562 97.62C42.8788 97.3182 42.8091 91.5272 42.8834 90.1383C42.9485 88.902 43.4533 87.7499 44.6128 87.8535C45.1903 87.9025 45.8663 88.7537 45.9876 89.5576ZM43.3441 66.5832C44.1581 66.4117 44.9963 66.6929 45.0812 67.3029C45.1645 67.8982 44.4627 68.5052 43.6609 68.4682C42.9758 68.5868 42.1225 68.8297 41.9633 68.0625C41.8072 67.2615 42.4665 66.7595 43.3441 66.5832ZM42.5332 105.521C43.2941 104.772 44.8371 105.882 44.9341 107.28C45.069 109.214 45.0266 112.852 44.8174 114.781C44.7826 115.077 42.2619 115.387 41.9451 114.914C41.6586 114.478 41.7647 110.105 41.6511 108.848C41.5359 107.603 41.8754 106.165 42.5332 105.521ZM41.451 95.06C41.4131 95.9809 41.4995 97.7046 41.3934 98.6211C41.3934 98.6211 39.4365 100.053 39.2107 99.7775C38.9955 99.523 38.9409 94.2441 38.9985 93.0641C39.0485 92.0113 39.4335 91.0312 40.3187 91.1198C40.7583 91.1628 41.2767 91.8871 41.3646 92.5724C41.4783 93.3972 41.4858 94.2308 41.451 95.06ZM39.2819 71.0315C40.061 70.8716 40.9159 70.8153 41.1266 71.7215C41.2979 72.4721 40.6355 72.8246 39.9064 72.9518C39.047 73.0924 38.4043 72.8749 38.2058 71.982C37.9966 71.0818 38.7651 71.1765 39.2819 71.0315ZM38.5044 106.935C38.9667 106.226 39.9019 107.278 39.961 108.605C40.0413 110.44 40.0126 113.89 39.8882 115.725C39.8716 116.003 38.3422 116.295 38.1512 115.849C37.9739 115.439 38.0436 111.285 37.9709 110.093C37.9027 108.915 38.1057 107.547 38.5044 106.935Z" fill="white"/>
</svg>
