<svg width="414" height="44" viewBox="0 0 414 44" fill="none" xmlns="http://www.w3.org/2000/svg">
    <path d="M347 19.6998C349.612 19.7 352.124 20.7094 354.017 22.5194C354.159 22.6592 354.387 22.6574 354.527 22.5155L355.89 21.1324C355.961 21.0604 356.001 20.9629 356 20.8614C355.999 20.7599 355.959 20.6629 355.887 20.5917C350.919 15.8028 343.081 15.8028 338.113 20.5917C338.042 20.6628 338.001 20.7599 338 20.8613C337.999 20.9628 338.039 21.0603 338.11 21.1324L339.473 22.5155C339.613 22.6576 339.841 22.6594 339.984 22.5194C341.877 20.7092 344.389 19.6998 347 19.6998ZM347 24.1997C348.435 24.1996 349.819 24.7361 350.883 25.7049C351.027 25.8424 351.253 25.8395 351.394 25.6982L352.754 24.3151C352.826 24.2426 352.866 24.1441 352.865 24.0419C352.864 23.9396 352.822 23.842 352.749 23.7709C349.51 20.7403 344.494 20.7403 341.255 23.7709C341.182 23.842 341.14 23.9396 341.139 24.0419C341.138 24.1442 341.178 24.2427 341.25 24.3151L342.61 25.6982C342.75 25.8395 342.977 25.8424 343.121 25.7049C344.184 24.7368 345.567 24.2003 347 24.1997ZM349.616 27.5006C349.689 27.4288 349.729 27.3299 349.727 27.2273C349.725 27.1248 349.68 27.0276 349.605 26.9588C348.101 25.6798 345.9 25.6798 344.396 26.9588C344.32 27.0276 344.276 27.1247 344.274 27.2272C344.272 27.3298 344.312 27.4287 344.385 27.5006L346.739 29.8902C346.808 29.9605 346.902 30 347 30C347.099 30 347.193 29.9605 347.262 29.8902L349.616 27.5006Z" fill="black"/>
    <path d="M362.923 20.2051C362.923 19.4971 363.497 18.9231 364.205 18.9231H381.833C382.541 18.9231 383.115 19.4971 383.115 20.2051V26.2949C383.115 27.0029 382.541 27.5769 381.833 27.5769H364.205C363.497 27.5769 362.923 27.0029 362.923 26.2949V20.2051Z" fill="black"/>
    <path opacity="0.4" fill-rule="evenodd" clip-rule="evenodd" d="M364.205 17.9615H381.833C383.072 17.9615 384.077 18.966 384.077 20.2051V26.2949C384.077 27.534 383.072 28.5385 381.833 28.5385H364.205C362.966 28.5385 361.962 27.534 361.962 26.2949V20.2051C361.962 18.966 362.966 17.9615 364.205 17.9615ZM361 20.2051C361 18.435 362.435 17 364.205 17H381.833C383.603 17 385.038 18.435 385.038 20.2051V26.2949C385.038 28.065 383.603 29.5 381.833 29.5H364.205C362.435 29.5 361 28.065 361 26.2949V20.2051ZM387.603 23.25C387.603 24.2351 386.919 25.0605 386 25.2776V21.2224C386.919 21.4395 387.603 22.2649 387.603 23.25Z" fill="black"/>
    <path fill-rule="evenodd" clip-rule="evenodd" d="M329.85 18C329.298 18 328.85 18.4477 328.85 19V28C328.85 28.5523 329.298 29 329.85 29H331.15C331.702 29 332.15 28.5523 332.15 28V19C332.15 18.4477 331.702 18 331.15 18H329.85ZM323.9 21.1999C323.9 20.6476 324.348 20.1999 324.9 20.1999H326.2C326.752 20.1999 327.2 20.6476 327.2 21.1999V27.9999C327.2 28.5522 326.752 28.9999 326.2 28.9999H324.9C324.348 28.9999 323.9 28.5522 323.9 27.9999V21.1999ZM319.95 22.4C319.398 22.4 318.95 22.8478 318.95 23.4V28C318.95 28.5523 319.398 29 319.95 29H321.25C321.802 29 322.25 28.5523 322.25 28V23.4C322.25 22.8478 321.802 22.4 321.25 22.4H319.95ZM315.1 29C314.492 29 314 28.5075 314 27.9V25.15C314 24.5425 314.492 24.05 315.1 24.05H316.2C316.808 24.05 317.3 24.5425 317.3 25.15V27.9C317.3 28.5075 316.808 29 316.2 29H315.1Z" fill="black"/>
    <path d="M43.3499 30H45.5735V17.3174H43.3323L40.0188 19.6465V21.7295L43.2971 19.4795H43.3499V30ZM52.86 17.0977C50.1266 17.0977 48.1139 18.9346 48.1139 21.4922V21.5098C48.1139 23.8916 49.8366 25.6494 52.2799 25.6494C53.9938 25.6494 55.2594 24.7705 55.7604 23.6104H55.8131C55.8131 23.751 55.8043 23.8828 55.7955 24.0146C55.7077 26.4141 54.8551 28.3652 52.8161 28.3652C51.6823 28.3652 50.9088 27.8027 50.5661 26.9326L50.5397 26.8535H48.2897L48.3073 26.9502C48.7028 28.8662 50.4606 30.2197 52.8073 30.2197C56.0416 30.2197 57.984 27.7148 57.984 23.5225V23.5049C57.984 19.0576 55.6549 17.0977 52.86 17.0977ZM52.86 23.9004C51.4186 23.9004 50.3463 22.8721 50.3463 21.4307V21.4131C50.3463 20.042 51.4801 18.9521 52.8864 18.9521C54.3102 18.9521 55.4176 20.0508 55.4176 21.457V21.4658C55.4176 22.8809 54.3102 23.9004 52.86 23.9004ZM60.4541 21.7031C61.166 21.7031 61.7197 21.1406 61.7197 20.4287C61.7197 19.7168 61.166 19.1631 60.4541 19.1631C59.7422 19.1631 59.1797 19.7168 59.1797 20.4287C59.1797 21.1406 59.7422 21.7031 60.4541 21.7031ZM60.4541 28.1543C61.166 28.1543 61.7197 27.5918 61.7197 26.8799C61.7197 26.168 61.166 25.6143 60.4541 25.6143C59.7422 25.6143 59.1797 26.168 59.1797 26.8799C59.1797 27.5918 59.7422 28.1543 60.4541 28.1543ZM67.9164 30.2197C71.0189 30.2197 72.8998 27.6973 72.8998 23.6631V23.6455C72.8998 19.6113 71.0189 17.0977 67.9164 17.0977C64.805 17.0977 62.933 19.6113 62.933 23.6455V23.6631C62.933 27.6973 64.805 30.2197 67.9164 30.2197ZM67.9164 28.3652C66.2025 28.3652 65.2181 26.5898 65.2181 23.6631V23.6455C65.2181 20.7188 66.2025 18.9609 67.9164 18.9609C69.6214 18.9609 70.6146 20.7188 70.6146 23.6455V23.6631C70.6146 26.5898 69.6214 28.3652 67.9164 28.3652ZM74.113 30H83.0251V28.1455H77.1101V28.0488L79.905 25.3945C82.1374 23.25 82.8318 22.2393 82.8318 20.7451V20.7275C82.8318 18.6357 81.0564 17.0977 78.5163 17.0977C75.9411 17.0977 73.99 18.7588 73.99 21.0791V21.1406H76.1169V21.0791C76.1433 19.8574 77.1277 18.917 78.5339 18.917C79.7556 18.917 80.6081 19.7256 80.6169 20.8594V20.877C80.6169 21.8174 80.2566 22.459 78.5954 24.085L74.113 28.4531V30Z" fill="black"/>
</svg>
